const uint8_t midifile[] = {
0x4d,0x54,0x68,0x64,0x00,0x00,0x00,0x06,0x00,0x01,0x00,0x02,0x04,0x00,0x4d,0x54,
0x72,0x6b,0x00,0x00,0x00,0x7a,0x00,0xff,0x54,0x05,0x00,0x00,0x00,0x00,0x00,0x00,
0xff,0x58,0x04,0x04,0x02,0x18,0x08,0x00,0xff,0x59,0x02,0x00,0x00,0x00,0xff,0x51,
0x03,0x07,0xa1,0x20,0x00,0xff,0x51,0x03,0x07,0xa1,0x20,0x01,0xff,0x51,0x03,0x07,
0xa1,0x20,0x8f,0x7f,0xff,0x51,0x03,0x07,0xa1,0x20,0x82,0x00,0xff,0x51,0x03,0x07,
0xc2,0x3a,0x82,0x00,0xff,0x51,0x03,0x07,0xc2,0x3a,0x82,0x00,0xff,0x51,0x03,0x07,
0xd3,0x34,0x82,0x00,0xff,0x51,0x03,0x07,0xd3,0x34,0x82,0x00,0xff,0x51,0x03,0x07,
0xe4,0x79,0x82,0x00,0xff,0x51,0x03,0x07,0xe4,0x79,0x82,0x00,0xff,0x51,0x03,0x07,
0xf6,0x0b,0x84,0x00,0xff,0x51,0x03,0x07,0xa1,0x20,0x87,0x9e,0x01,0xff,0x2f,0x00,
0x4d,0x54,0x72,0x6b,0x00,0x00,0x06,0xd8,0x00,0xff,0x09,0x1a,0x44,0x65,0x66,0x61,
0x75,0x6c,0x74,0x20,0x4d,0x49,0x44,0x49,0x20,0x4f,0x75,0x74,0x70,0x75,0x74,0x20,
0x44,0x65,0x76,0x69,0x63,0x65,0x00,0xff,0x03,0x05,0x50,0x69,0x61,0x6e,0x6f,0x00,
0xc0,0x00,0x00,0xb0,0x07,0x65,0x00,0xb0,0x0a,0x40,0x00,0xb0,0x07,0x6e,0x00,0xb0,
0x07,0x66,0x03,0xb0,0x65,0x00,0x00,0xb0,0x64,0x00,0x00,0xb0,0x65,0x00,0x00,0xb0,
0x64,0x00,0x01,0xb0,0x06,0x0c,0x00,0xb0,0x06,0x0c,0x01,0xb0,0x26,0x00,0x00,0xb0,
0x26,0x00,0x05,0xb0,0x07,0x6e,0x00,0x90,0x4c,0x45,0x00,0xb0,0x07,0x66,0x00,0x90,
0x34,0x39,0x84,0x18,0x90,0x40,0x34,0x1e,0x80,0x34,0x00,0x83,0x5d,0x80,0x4c,0x00,
0x01,0x90,0x47,0x41,0x00,0x90,0x34,0x35,0x1e,0x80,0x40,0x00,0x83,0x3c,0x80,0x47,
0x00,0x1f,0x90,0x48,0x40,0x00,0x90,0x40,0x34,0x1e,0x80,0x34,0x00,0x83,0x41,0x80,
0x48,0x00,0x1f,0x90,0x4a,0x43,0x00,0x90,0x34,0x37,0x1e,0x80,0x40,0x00,0x83,0x60,
0x90,0x40,0x34,0x1e,0x80,0x34,0x00,0x83,0x5a,0x80,0x4a,0x00,0x01,0x90,0x48,0x41,
0x00,0x90,0x34,0x35,0x1e,0x80,0x40,0x00,0x83,0x3c,0x80,0x48,0x00,0x1f,0x90,0x47,
0x40,0x00,0x90,0x40,0x34,0x1e,0x80,0x34,0x00,0x83,0x3e,0x80,0x47,0x00,0x23,0x90,
0x45,0x45,0x00,0x90,0x2d,0x39,0x1a,0x80,0x40,0x00,0x84,0x04,0x90,0x39,0x34,0x1e,
0x80,0x2d,0x00,0x83,0x5d,0x80,0x45,0x00,0x01,0x90,0x45,0x41,0x00,0x90,0x2d,0x35,
0x1e,0x80,0x39,0x00,0x83,0x3c,0x80,0x45,0x00,0x1f,0x90,0x48,0x40,0x00,0x90,0x39,
0x34,0x1e,0x80,0x2d,0x00,0x83,0x41,0x80,0x48,0x00,0x1f,0x90,0x4c,0x43,0x00,0x90,
0x2d,0x37,0x1e,0x80,0x39,0x00,0x83,0x60,0x90,0x39,0x34,0x1e,0x80,0x2d,0x00,0x83,
0x5a,0x80,0x4c,0x00,0x01,0x90,0x4a,0x41,0x00,0x90,0x2d,0x35,0x1e,0x80,0x39,0x00,
0x83,0x3c,0x80,0x4a,0x00,0x1f,0x90,0x48,0x40,0x00,0x90,0x39,0x34,0x1e,0x80,0x2d,
0x00,0x83,0x3e,0x80,0x48,0x00,0x23,0x90,0x47,0x45,0x00,0x90,0x2c,0x39,0x1a,0x80,
0x39,0x00,0x84,0x04,0x90,0x38,0x34,0x1e,0x80,0x2c,0x00,0x83,0x5d,0x80,0x47,0x00,
0x01,0x90,0x47,0x41,0x00,0x90,0x2c,0x35,0x1e,0x80,0x38,0x00,0x83,0x3c,0x80,0x47,
0x00,0x1f,0x90,0x48,0x40,0x00,0x90,0x38,0x34,0x1e,0x80,0x2c,0x00,0x83,0x41,0x80,
0x48,0x00,0x1f,0x90,0x4a,0x43,0x00,0x90,0x2c,0x37,0x1e,0x80,0x38,0x00,0x83,0x60,
0x90,0x38,0x34,0x1e,0x80,0x2c,0x00,0x83,0x5a,0x80,0x4a,0x00,0x01,0x90,0x4c,0x41,
0x00,0x90,0x2c,0x35,0x1e,0x80,0x38,0x00,0x83,0x5b,0x90,0x38,0x34,0x1e,0x80,0x2c,
0x00,0x83,0x5c,0x80,0x4c,0x00,0x05,0x90,0x48,0x45,0x00,0x90,0x2d,0x39,0x1a,0x80,
0x38,0x00,0x84,0x04,0x90,0x39,0x34,0x1e,0x80,0x2d,0x00,0x83,0x5d,0x80,0x48,0x00,
0x01,0x90,0x45,0x41,0x00,0x90,0x2d,0x35,0x1e,0x80,0x39,0x00,0x83,0x5b,0x90,0x39,
0x34,0x1e,0x80,0x2d,0x00,0x83,0x5f,0x80,0x45,0x00,0x01,0x90,0x45,0x43,0x00,0x90,
0x2d,0x37,0x1e,0x80,0x39,0x00,0x83,0x60,0x90,0x39,0x34,0x1e,0x80,0x2d,0x00,0x83,
0x5a,0x80,0x45,0x00,0x01,0x90,0x2f,0x2d,0x00,0x90,0x3b,0x3b,0x1e,0x80,0x39,0x00,
0x81,0x37,0xb0,0x07,0x6e,0x81,0x65,0x80,0x3b,0x00,0x3f,0x90,0x30,0x2c,0x00,0x90,
0x3c,0x3a,0x1e,0x80,0x2f,0x00,0x83,0x1e,0x80,0x3c,0x00,0x43,0x90,0x32,0x39,0x1a,
0x80,0x30,0x00,0x84,0x04,0x90,0x3e,0x34,0x1e,0x80,0x32,0x00,0x83,0x5e,0x90,0x4a,
0x41,0x00,0x90,0x32,0x35,0x1e,0x80,0x3e,0x00,0x83,0x5b,0x90,0x3e,0x34,0x1e,0x80,
0x32,0x00,0x83,0x5f,0x80,0x4a,0x00,0x01,0x90,0x4d,0x43,0x00,0x90,0x32,0x37,0x1e,
0x80,0x3e,0x00,0x83,0x41,0x80,0x4d,0x00,0x1f,0x90,0x51,0x40,0x00,0x90,0x3e,0x34,
0x1e,0x80,0x32,0x00,0x83,0x5b,0x90,0x32,0x35,0x1e,0x80,0x3e,0x00,0x83,0x3c,0x80,
0x51,0x00,0x1f,0x90,0x3e,0x34,0x1e,0x80,0x32,0x00,0x83,0x61,0x90,0x4f,0x45,0x00,
0x90,0x32,0x39,0x1a,0x80,0x3e,0x00,0x83,0x65,0x80,0x4f,0x00,0x1f,0x90,0x4d,0x40,
0x00,0x90,0x3e,0x34,0x1e,0x80,0x32,0x00,0x83,0x3f,0x80,0x4d,0x00,0x1f,0x90,0x4c,
0x41,0x00,0x90,0x30,0x35,0x1e,0x80,0x3e,0x00,0x83,0x5b,0x90,0x3c,0x34,0x1e,0x80,
0x30,0x00,0x83,0x60,0x90,0x30,0x37,0x1e,0x80,0x3c,0x00,0x83,0x60,0x90,0x3c,0x34,
0x1e,0x80,0x30,0x00,0x83,0x5a,0x80,0x4c,0x00,0x01,0x90,0x48,0x41,0x00,0x90,0x30,
0x35,0x1e,0x80,0x3c,0x00,0x83,0x3c,0x80,0x48,0x00,0x1f,0x90,0x4c,0x40,0x00,0x90,
0x3c,0x34,0x1e,0x80,0x30,0x00,0x83,0x61,0x90,0x30,0x39,0x1a,0x80,0x3c,0x00,0x84,
0x04,0x90,0x3c,0x34,0x1e,0x80,0x30,0x00,0x83,0x5d,0x80,0x4c,0x00,0x01,0x90,0x4a,
0x41,0x00,0x90,0x30,0x35,0x1e,0x80,0x3c,0x00,0x83,0x44,0x80,0x4a,0x00,0x17,0x90,
0x48,0x40,0x00,0x90,0x3c,0x34,0x1e,0x80,0x30,0x00,0x83,0x41,0x80,0x48,0x00,0x1f,
0x90,0x47,0x43,0x00,0x90,0x2c,0x37,0x1e,0x80,0x3c,0x00,0x83,0x60,0x90,0x38,0x34,
0x1e,0x80,0x2c,0x00,0x83,0x5b,0x90,0x2c,0x35,0x1e,0x80,0x38,0x00,0x83,0x56,0x80,
0x47,0x00,0x05,0x90,0x48,0x40,0x00,0x90,0x38,0x34,0x1e,0x80,0x2c,0x00,0x83,0x3e,
0x80,0x48,0x00,0x23,0x90,0x4a,0x45,0x00,0x90,0x2c,0x39,0x1a,0x80,0x38,0x00,0x84,
0x04,0x90,0x38,0x34,0x1e,0x80,0x2c,0x00,0x83,0x3f,0x80,0x4a,0x00,0x1f,0x90,0x4c,
0x41,0x00,0x90,0x2c,0x35,0x1e,0x80,0x38,0x00,0x83,0x5b,0x90,0x38,0x34,0x1e,0x80,
0x2c,0x00,0x83,0x5f,0x80,0x4c,0x00,0x01,0x90,0x48,0x43,0x00,0x90,0x2d,0x37,0x1e,
0x80,0x38,0x00,0x83,0x60,0x90,0x39,0x34,0x1e,0x80,0x2d,0x00,0x83,0x5a,0x80,0x48,
0x00,0x01,0x90,0x45,0x41,0x00,0x90,0x2d,0x35,0x1e,0x80,0x39,0x00,0x83,0x5b,0x90,
0x39,0x34,0x1e,0x80,0x2d,0x00,0x83,0x5c,0x80,0x45,0x00,0x05,0x90,0x45,0x45,0x00,
0x90,0x2d,0x39,0x1a,0x80,0x39,0x00,0x84,0x04,0x90,0x39,0x34,0x1e,0x80,0x2d,0x00,
0x83,0x5d,0x80,0x45,0x00,0x01,0x90,0x2d,0x35,0x1e,0x80,0x39,0x00,0x83,0x5b,0x90,
0x39,0x34,0x1e,0x80,0x2d,0x00,0x83,0x7e,0x80,0x39,0x00,0x81,0x2e,0xb0,0x07,0x66,
0x8e,0x23,0x90,0x4c,0x45,0x00,0x90,0x2d,0x39,0x84,0x1e,0x90,0x39,0x34,0x1e,0x80,
0x2d,0x00,0x83,0x5e,0x90,0x2d,0x35,0x1e,0x80,0x39,0x00,0x83,0x5b,0x90,0x39,0x34,
0x1e,0x80,0x2d,0x00,0x83,0x5f,0x80,0x4c,0x00,0x01,0x90,0x48,0x43,0x00,0x90,0x2d,
0x37,0x1e,0x80,0x39,0x00,0x83,0x60,0x90,0x39,0x34,0x1e,0x80,0x2d,0x00,0x83,0x5b,
0x90,0x2d,0x35,0x1e,0x80,0x39,0x00,0x83,0x5b,0x90,0x39,0x34,0x1e,0x80,0x2d,0x00,
0x83,0x5c,0x80,0x48,0x00,0x05,0x90,0x4a,0x45,0x00,0x90,0x2c,0x39,0x1a,0x80,0x39,
0x00,0x84,0x04,0x90,0x38,0x34,0x1e,0x80,0x2c,0x00,0x83,0x5e,0x90,0x2c,0x35,0x1e,
0x80,0x38,0x00,0x83,0x5b,0x90,0x38,0x34,0x1e,0x80,0x2c,0x00,0x83,0x5f,0x80,0x4a,
0x00,0x01,0x90,0x47,0x43,0x00,0x90,0x2c,0x37,0x1e,0x80,0x38,0x00,0x83,0x60,0x90,
0x38,0x34,0x1e,0x80,0x2c,0x00,0x83,0x5b,0x90,0x2c,0x35,0x1e,0x80,0x38,0x00,0x83,
0x5b,0x90,0x38,0x34,0x1e,0x80,0x2c,0x00,0x83,0x5c,0x80,0x47,0x00,0x05,0x90,0x48,
0x45,0x00,0x90,0x2d,0x39,0x1a,0x80,0x38,0x00,0x84,0x04,0x90,0x39,0x34,0x1e,0x80,
0x2d,0x00,0x83,0x5e,0x90,0x2d,0x35,0x1e,0x80,0x39,0x00,0x83,0x5b,0x90,0x39,0x34,
0x1e,0x80,0x2d,0x00,0x83,0x5f,0x80,0x48,0x00,0x01,0x90,0x45,0x43,0x00,0x90,0x2d,
0x37,0x1e,0x80,0x39,0x00,0x83,0x60,0x90,0x39,0x34,0x1e,0x80,0x2d,0x00,0x83,0x5b,
0x90,0x2d,0x35,0x1e,0x80,0x39,0x00,0x83,0x5b,0x90,0x39,0x34,0x1e,0x80,0x2d,0x00,
0x83,0x5c,0x80,0x45,0x00,0x05,0x90,0x44,0x45,0x00,0x90,0x2c,0x39,0x1a,0x80,0x39,
0x00,0x84,0x04,0x90,0x38,0x34,0x1e,0x80,0x2c,0x00,0x83,0x5e,0x90,0x2c,0x35,0x1e,
0x80,0x38,0x00,0x83,0x5b,0x90,0x38,0x34,0x1e,0x80,0x2c,0x00,0x83,0x5f,0x80,0x44,
0x00,0x01,0x90,0x47,0x43,0x00,0x90,0x2c,0x37,0x1e,0x80,0x38,0x00,0x83,0x60,0x90,
0x38,0x34,0x1e,0x80,0x2c,0x00,0x83,0x5b,0x90,0x2c,0x35,0x1e,0x80,0x38,0x00,0x83,
0x5b,0x90,0x38,0x34,0x1e,0x80,0x2c,0x00,0x83,0x5c,0x80,0x47,0x00,0x05,0x90,0x4c,
0x45,0x00,0x90,0x2d,0x39,0x1a,0x80,0x38,0x00,0x84,0x04,0x90,0x39,0x34,0x1e,0x80,
0x2d,0x00,0x83,0x5e,0x90,0x2d,0x35,0x1e,0x80,0x39,0x00,0x83,0x5b,0x90,0x39,0x34,
0x1e,0x80,0x2d,0x00,0x83,0x5f,0x80,0x4c,0x00,0x01,0x90,0x48,0x43,0x00,0x90,0x2d,
0x37,0x1e,0x80,0x39,0x00,0x83,0x60,0x90,0x39,0x34,0x1e,0x80,0x2d,0x00,0x83,0x5b,
0x90,0x2d,0x35,0x1e,0x80,0x39,0x00,0x83,0x5b,0x90,0x39,0x34,0x1e,0x80,0x2d,0x00,
0x83,0x5c,0x80,0x48,0x00,0x05,0x90,0x4a,0x45,0x00,0x90,0x2c,0x39,0x1a,0x80,0x39,
0x00,0x84,0x04,0x90,0x38,0x34,0x1e,0x80,0x2c,0x00,0x83,0x5e,0x90,0x2c,0x35,0x1e,
0x80,0x38,0x00,0x83,0x5b,0x90,0x38,0x34,0x1e,0x80,0x2c,0x00,0x83,0x5f,0x80,0x4a,
0x00,0x01,0x90,0x47,0x43,0x00,0x90,0x2c,0x37,0x1e,0x80,0x38,0x00,0x83,0x60,0x90,
0x38,0x34,0x1e,0x80,0x2c,0x00,0x83,0x5b,0x90,0x2c,0x35,0x1e,0x80,0x38,0x00,0x83,
0x5b,0x90,0x38,0x34,0x1e,0x80,0x2c,0x00,0x83,0x5c,0x80,0x47,0x00,0x05,0x90,0x48,
0x45,0x00,0x90,0x2d,0x39,0x1a,0x80,0x38,0x00,0x84,0x04,0x90,0x39,0x34,0x1e,0x80,
0x2d,0x00,0x83,0x5d,0x80,0x48,0x00,0x01,0x90,0x4c,0x41,0x00,0x90,0x2d,0x35,0x1e,
0x80,0x39,0x00,0x83,0x5b,0x90,0x39,0x34,0x1e,0x80,0x2d,0x00,0x83,0x5f,0x80,0x4c,
0x00,0x01,0x90,0x51,0x43,0x00,0x90,0x2d,0x37,0x1e,0x80,0x39,0x00,0x83,0x60,0x90,
0x39,0x34,0x1e,0x80,0x2d,0x00,0x83,0x5b,0x90,0x2d,0x35,0x1e,0x80,0x39,0x00,0x83,
0x5b,0x90,0x39,0x34,0x1e,0x80,0x2d,0x00,0x83,0x5c,0x80,0x51,0x00,0x05,0x90,0x50,
0x40,0x00,0x90,0x2c,0x39,0x1a,0x80,0x39,0x00,0x84,0x04,0x90,0x38,0x34,0x1e,0x80,
0x2c,0x00,0x83,0x5e,0x90,0x2c,0x35,0x1e,0x80,0x38,0x00,0x83,0x5b,0x90,0x38,0x34,
0x1e,0x80,0x2c,0x00,0x83,0x60,0x90,0x2c,0x37,0x1e,0x80,0x38,0x00,0x83,0x60,0x90,
0x38,0x34,0x1e,0x80,0x2c,0x00,0x83,0x5b,0x90,0x2c,0x35,0x1e,0x80,0x38,0x00,0x83,
0x5b,0x90,0x38,0x34,0x1e,0x80,0x2c,0x00,0x83,0x5c,0x80,0x50,0x00,0x1f,0x80,0x38,
0x00,0x81,0x43,0xb0,0x07,0x6e,0x00,0xb0,0x07,0x66,0x83,0x9e,0x20,0xff,0x2f,0x00,
};
#ifndef __STEP_ARRAY_H__
#define __STEP_ARRAY_H__

// N powers of the the 12th-root of 2.
#define STEP1 1.05946309436
#define STEP2 (STEP1*STEP1)
#define STEP3 (STEP2*STEP1)
#define STEP4 (STEP3*STEP1)
#define STEP5 (STEP4*STEP1)
#define STEP6 (STEP5*STEP1)
#define STEP7 (STEP6*STEP1)
#define STEP8 (STEP7*STEP1)
#define STEP9 (STEP8*STEP1)
#define RATE 30000
#define N 100

// Macros for computing the fixed point representation of
// the step size used for traversing a wavetable of size N
// at a rate of RATE to produce tones of various doublings
// and halvings of 440 Hz.  (The "A" above middle "C".)
#define A14    ((13.75   * N/RATE) * (1<<16)) /* A0 */
#define A27    ((27.5    * N/RATE) * (1<<16)) /* A1 */
#define A55    ((55.0    * N/RATE) * (1<<16)) /* A2 */
#define A110   ((110.0   * N/RATE) * (1<<16)) /* A3 */
#define A220   ((220.0   * N/RATE) * (1<<16)) /* A4 */
#define A440   ((440.0   * N/RATE) * (1<<16)) /* A5 */
#define A880   ((880.0   * N/RATE) * (1<<16)) /* A6 */
#define A1760  ((1760.0  * N/RATE) * (1<<16)) /* A7 */
#define A3520  ((3520.0  * N/RATE) * (1<<16)) /* A8 */
#define A7040  ((7040.0  * N/RATE) * (1<<16)) /* A9 */
#define A14080 ((14080.0 * N/RATE) * (1<<16)) /* A10 */


// A table of steps for each of 128 notes.
// step[60] is the step size for middle C.
// step[69] is the step size for 440 Hz.
const int step[] = {
        A14 / STEP9,    // C                         C-1
        A14 / STEP8,    // C# / Db
        A14 / STEP7,    // D
        A14 / STEP6,    // D# / Eb
        A14 / STEP5,    // E
        A14 / STEP4,    // F
        A14 / STEP3,    // F# / Gb
        A14 / STEP2,    // G
        A14 / STEP1,    // G# / Ab
        A14,            // A14                       A0
        A14 * STEP1,    // A# / Bb
        A14 * STEP2,    // B
        A14 * STEP3,    // C                         C0
        A14 * STEP4,    // C# / Db
        A14 * STEP5,    // D
        A27 * STEP6,    // D# / Eb
        A27 / STEP5,    // E
        A27 / STEP4,    // F
        A27 / STEP3,    // F# / Gb
        A27 / STEP2,    // G
        A27 / STEP1,    // G# / Ab
        A27,            // A27                       A1
        A27 * STEP1,    // A# / Bb
        A27 * STEP2,    // B
        A27 * STEP3,    // C                         C1
        A27 * STEP4,    // C# / Db
        A27 * STEP5,    // D
        A27 * STEP6,    // D# / Eb
        A55 / STEP5,    // E
        A55 / STEP4,    // F
        A55 / STEP3,    // F# / Gb
        A55 / STEP2,    // G
        A55 / STEP1,    // G# / Ab
        A55,            // A55                       A2
        A55 * STEP1,    // A# / Bb
        A55 * STEP2,    // B
        A55 * STEP3,    // C                         C2
        A55 * STEP4,    // C# / Db
        A55 * STEP5,    // D
        A55 * STEP6,    // D# / Eb
        A110 / STEP5,   // E
        A110 / STEP4,   // F
        A110 / STEP3,   // F# / Gb
        A110 / STEP2,   // G
        A110 / STEP1,   // G# / Ab
        A110,           // A110                     A3
        A110 * STEP1,   // A# / Bb
        A110 * STEP2,   // B
        A110 * STEP3,   // C                        C3
        A110 * STEP4,   // C# / Db
        A110 * STEP5,   // D
        A110 * STEP6,   // D# / Eb
        A220 / STEP5,   // E
        A220 / STEP4,   // F
        A220 / STEP3,   // F# / Gb
        A220 / STEP2,   // G
        A220 / STEP1,   // G# / Ab
        A220,           // A220                     A4
        A220 * STEP1,   // A# / Bb
        A220 * STEP2,   // B
        A220 * STEP3,   // C (middle C)             C4 (element #60)
        A220 * STEP4,   // C# / Db
        A220 * STEP5,   // D
        A220 * STEP6,   // D# / Eb
        A440 / STEP5,   // E
        A440 / STEP4,   // F
        A440 / STEP3,   // F# / Gb
        A440 / STEP2,   // G
        A440 / STEP1,   // G# / Ab
        A440,           // A440                     A5
        A440 * STEP1,   // A# / Bb
        A440 * STEP2,   // B
        A440 * STEP3,   // C                        C5
        A440 * STEP4,   // C# / Db
        A440 * STEP5,   // D
        A440 * STEP6,   // D# / Eb
        A880 / STEP5,   // E
        A880 / STEP4,   // F
        A880 / STEP3,   // F# / Gb
        A880 / STEP2,   // G
        A880 / STEP1,   // G# / Ab
        A880,           // A880                     A6
        A880 * STEP1,   // A# / Bb
        A880 * STEP2,   // B
        A880 * STEP3,   // C                        C6
        A880 * STEP4,   // C# / Db
        A880 * STEP5,   // D
        A880 * STEP6,   // D# / Eb
        A1760 / STEP5,  // E
        A1760 / STEP4,  // F
        A1760 / STEP3,  // F# / Gb
        A1760 / STEP2,  // G
        A1760 / STEP1,  // G# / Ab
        A1760,          // A1760                   A7
        A1760 * STEP1,  // A# / Bb
        A1760 * STEP2,  // B
        A1760 * STEP3,  // C                       C7
        A1760 * STEP4,  // C# / Db
        A1760 * STEP5,  // D
        A1760 * STEP6,  // D# / Eb
        A3520 / STEP5,  // E
        A3520 / STEP4,  // F
        A3520 / STEP3,  // F# / Gb
        A3520 / STEP2,  // G
        A3520 / STEP1,  // G# / Ab
        A3520,          // A3520                   A8
        A3520 * STEP1,  // A# / Bb
        A3520 * STEP2,  // B
        A3520 * STEP3,  // C                       C8
        A3520 * STEP4,  // C# / Db
        A3520 * STEP5,  // D
        A3520 * STEP6,  // D# / Eb
        A7040 / STEP5,  // E
        A7040 / STEP4,  // F
        A7040 / STEP3,  // F# / Gb
        A7040 / STEP2,  // G
        A7040 / STEP1,  // G# / Ab
        A7040,          // A7040                   A9
        A7040 * STEP1,  // A# / Bb
        A7040 * STEP2,  // B
        A7040 * STEP3,  // C                       C9
        A7040 * STEP4,  // C# / Db
        A7040 * STEP5,  // D
        A7040 * STEP6,  // D# / Eb
        A14080 / STEP5, // E
        A14080 / STEP4, // F
        A14080 / STEP3, // F# / Gb
        A14080 / STEP2, // G
};

#endif /* __STEP_ARRAY_H__ */

